<?xml version="1.0" encoding="UTF-8"?>
<!DOCTYPE svg PUBLIC "-//W3C//DTD SVG 1.1//EN" "http://www.w3.org/Graphics/SVG/1.1/DTD/svg11.dtd">
<!-- Creator: CorelDRAW -->
<svg xmlns="http://www.w3.org/2000/svg" xml:space="preserve" width="113.506mm" height="72.9146mm" version="1.1" style="shape-rendering:geometricPrecision; text-rendering:geometricPrecision; image-rendering:optimizeQuality; fill-rule:evenodd; clip-rule:evenodd"
viewBox="0 0 11350.64 7291.46"
 xmlns:xlink="http://www.w3.org/1999/xlink"
 xmlns:xodm="http://www.corel.com/coreldraw/odm/2003">
 <defs>
  <style type="text/css">
   <![CDATA[
    .fil1 {fill:#005CA8}
    .fil0 {fill:#005CA8;fill-rule:nonzero}
   ]]>
  </style>
 </defs>
 <g id="Camada_x0020_1">
  <metadata id="CorelCorpID_0Corel-Layer"/>
  <g id="_1851438647424">
   <path class="fil0" d="M9831.39 4342.68l550.07 0 0 1327.94 857.52 0 0 433.92 -1407.85 0 0 -1761.86 0.26 0zm-1794.93 0l1472.67 0 0 376.24 -922.07 0 0 280.19 855.13 0 0 359.3 -855.13 0 0 347.13 948.79 0.01 0 399.26 -1499.39 -0.01 0 -1762.12zm-1243.81 751.15l134.41 0c106.1,0 180.18,-17.99 223.31,-54.5 42.6,-36.51 64.29,-83.34 64.29,-139.96 0,-55.3 -18.79,-102.39 -55.83,-140.76 -36.78,-38.63 -106.89,-57.94 -209.55,-57.94l-156.63 -0.01 0 393.17zm-551.92 -751.15l913.61 0c198.97,0 347.93,46.83 446.88,140.76 98.95,93.66 148.7,227.28 148.7,400.05 0,178.06 -53.98,316.97 -161.93,416.98 -107.95,100.28 -272.79,150.28 -494.51,150.28l-300.56 0 0 654.05 -552.19 0 0 -1762.12zm-2349.23 0l723.1 0 279.14 1072.09 278.08 -1072.09 720.46 0 0 1762.13 -448.74 -0.01 0 -1343.55 -348.19 1343.55 -406.4 0 -347.13 -1343.55 0 1343.55 -450.06 0 0 -1762.12 -0.26 0zm-947.47 1089.82l-196.59 -633.41 -195.53 633.41 392.12 0zm115.09 381.26l-626.27 0 -86.25 290.78 -561.71 0 668.6 -1762.13 599.28 0 668.87 1762.13 -575.21 0 -87.31 -290.78zm-2984.5 -292.1l523.08 -32.28c11.11,84.14 34.4,148.17 69.32,192.35 56.36,71.44 137.58,106.63 242.62,106.63 78.32,0 138.64,-17.99 181.5,-54.5 42.33,-36.51 63.24,-78.85 63.24,-126.74 0,-45.51 -19.84,-86.52 -60.59,-122.5 -40.48,-36.25 -134.14,-70.11 -281.52,-102.13 -241.04,-53.71 -412.75,-124.62 -515.67,-213.78 -103.45,-88.9 -155.31,-202.14 -155.31,-339.99 0,-90.75 26.46,-176.48 79.38,-256.65 52.92,-80.43 132.56,-143.67 238.92,-189.97 106.36,-46.04 252.15,-69.06 437.36,-69.06 227.28,0 400.84,41.8 520.17,125.68 119.33,83.61 190.24,216.96 212.99,399.52l-518.05 29.9c-13.76,-79.11 -42.6,-137.05 -87.05,-173.04 -43.92,-35.72 -104.78,-53.71 -182.3,-53.71 -64.29,0 -112.18,13.23 -144.46,40.22 -32.28,26.72 -48.42,59.53 -48.42,98.16 0,28.05 13.23,52.92 39.69,75.41 26.19,23.55 87.31,44.71 184.68,64.82 240.24,51.33 411.96,103.45 515.94,155.84 103.98,52.39 179.65,117.21 227.01,195.26 47.36,77.52 71.17,164.57 71.17,261.14 0,112.71 -32.01,216.96 -94.72,312.21 -62.97,95.51 -151.08,167.75 -264.58,216.96 -112.98,49.21 -255.85,73.82 -428.1,73.82 -302.42,0 -511.97,-57.41 -628.39,-173.3 -116.95,-115.89 -182.57,-262.2 -197.91,-440.27z"/>
   <g>
    <path class="fil0" d="M10642.87 6843.25l193.15 -11.64c4.23,29.9 12.7,52.65 25.4,68.53 20.9,25.4 50.8,37.84 89.69,37.84 28.84,0 51.33,-6.35 66.94,-19.31 15.61,-12.96 23.28,-28.05 23.28,-44.98 0,-16.14 -7.41,-30.69 -22.49,-43.66 -14.82,-12.96 -49.48,-24.87 -103.98,-36.25 -89.16,-19.31 -152.66,-44.45 -190.5,-76.2 -38.1,-31.75 -57.41,-71.97 -57.41,-120.91 0,-32.28 9.79,-62.71 29.37,-91.28 19.58,-28.58 48.95,-51.06 88.11,-67.47 39.42,-16.4 93.13,-24.61 161.66,-24.61 83.87,0 148.17,14.82 192.09,44.71 44.19,29.63 70.11,77.26 78.58,142.08l-191.29 10.58c-5.03,-28.05 -15.88,-48.68 -32.01,-61.65 -16.4,-12.7 -38.89,-19.05 -67.47,-19.05 -23.81,0 -41.54,4.76 -53.45,14.29 -11.91,9.53 -17.99,21.17 -17.99,34.93 0,10.05 4.76,18.79 14.82,26.99 9.79,8.2 32.28,15.88 68.26,23.02 88.64,18.26 152.14,36.78 190.5,55.3 38.36,18.52 66.41,41.8 83.87,69.32 17.46,27.52 26.46,58.47 26.46,92.87 0,39.95 -11.64,77.26 -34.93,111.13 -23.28,33.87 -55.83,59.53 -97.9,76.99 -41.8,17.73 -94.46,26.19 -158.22,26.19 -111.65,0 -189.18,-20.37 -232.04,-61.38 -42.34,-41.02 -66.68,-93.14 -72.5,-156.38l0 0zm-316.71 -31.75l-72.76 -225.16 -72.23 225.16 144.99 0zm42.6 135.47l-231.51 0 -31.75 103.45 -207.43 0 246.86 -626.53 221.45 0 247.12 626.53 -212.46 0 -32.28 -103.45zm-1130.83 -523.08l212.46 0 147.9 450.85 145.79 -450.85 206.11 0 -243.68 626.53 -219.87 0 -248.71 -626.53zm-284.42 0l203.46 0 0 626.53 -203.46 0 0 -626.53zm-716.76 0l617.01 0 0 154.78 -207.17 0 0 471.75 -202.94 0 0 -471.75 -206.9 0 0 -154.78zm-517.26 314.59c0,63.24 12.17,108.74 36.78,136.26 24.61,27.52 58.21,41.54 100.54,41.54 43.66,0 77.52,-13.49 101.34,-40.48 23.81,-27.25 35.98,-75.67 35.98,-145.79 0,-59 -12.7,-102.13 -37.57,-129.38 -24.87,-27.25 -58.74,-40.75 -101.6,-40.75 -41.01,0 -73.82,13.76 -98.43,41.28 -24.87,27.78 -37.04,73.56 -37.04,137.32l0 0zm-203.2 -0.79c0,-102.39 29.9,-182.03 89.69,-238.92 59.8,-57.15 143.14,-85.46 249.77,-85.46 109.54,0 193.68,28.05 252.94,83.87 59,55.83 88.9,134.41 88.9,235.21 0,73.29 -12.96,133.35 -38.89,180.18 -25.93,46.83 -63.24,83.34 -111.92,109.54 -48.95,26.19 -109.8,39.16 -182.83,39.16 -74.08,0 -135.2,-11.11 -184.15,-33.6 -48.42,-22.49 -87.84,-58.21 -118.27,-106.89 -30.16,-48.95 -45.24,-109.8 -45.24,-183.09l0 0zm-842.96 -313.8l267.23 0 102.92 381 102.66 -381 266.17 0 0 626.53 -165.9 0 0 -477.57 -128.59 477.57 -150.01 0 -128.06 -477.57 0 477.57 -166.42 0 0 -626.53zm-585 314.59c0,63.24 12.17,108.74 36.78,136.26 24.61,27.52 58.21,41.54 100.54,41.54 43.66,0 77.52,-13.49 101.34,-40.48 23.81,-27.25 35.98,-75.67 35.98,-145.79 0,-59 -12.7,-102.13 -37.57,-129.38 -24.87,-27.25 -58.74,-40.75 -101.6,-40.75 -41.01,0 -73.82,13.76 -98.69,41.28 -24.34,27.78 -36.78,73.56 -36.78,137.32l0 0zm-203.2 -0.79c0,-102.39 30.16,-182.03 89.69,-238.92 59.8,-57.15 142.88,-85.46 249.77,-85.46 109.54,0 193.68,28.05 252.94,83.87 59.27,55.83 88.9,134.41 88.9,235.21 0,73.29 -12.96,133.35 -38.89,180.18 -25.93,46.83 -63.24,83.34 -111.92,109.54 -48.95,26.19 -109.8,39.16 -182.56,39.16 -74.08,0 -135.47,-11.11 -184.15,-33.6 -48.68,-22.49 -87.84,-58.21 -118.27,-106.89 -30.43,-48.95 -45.51,-109.8 -45.51,-183.09l0 0zm-651.93 -313.8l617.27 0 0 154.78 -207.17 0 0 471.75 -202.93 0 0 -471.75 -206.91 0 0 -154.78 -0.26 0zm-291.04 0l202.67 0 0 373.59c0,37.04 -6.09,71.7 -18.26,104.78 -12.17,32.81 -30.96,61.65 -56.89,86.25 -25.93,24.61 -52.92,42.07 -81.49,52.12 -39.42,13.76 -86.78,20.9 -142.08,20.9 -32.01,0 -66.94,-2.12 -104.78,-6.35 -37.84,-4.23 -69.32,-12.7 -94.72,-25.4 -25.4,-12.7 -48.68,-30.69 -69.59,-53.98 -21.17,-23.28 -35.45,-47.36 -43.39,-72.23 -12.7,-39.69 -18.79,-75.14 -18.79,-105.83l0 -373.59 202.69 0 0 382.32c0,34.4 9.79,60.85 29.63,80.17 19.84,19.31 47.36,28.84 82.81,28.84 34.93,0 62.44,-9.53 82.29,-28.58 19.84,-18.79 29.63,-45.77 29.63,-80.43l0 -382.58 0.27 0zm-748.51 387.61l-72.76 -225.16 -72.23 225.16 144.99 0zm42.6 135.47l-231.51 0 -31.75 103.45 -207.43 0 246.86 -626.53 221.45 0 247.12 626.53 -212.46 0 -32.28 -103.45zm-1408.91 -103.72l193.15 -11.64c4.23,29.9 12.7,52.65 25.66,68.53 20.9,25.4 50.8,37.84 89.69,37.84 28.84,0 51.33,-6.35 66.94,-19.31 15.61,-12.96 23.55,-28.05 23.55,-44.98 0,-16.14 -7.41,-30.69 -22.49,-43.66 -15.08,-12.96 -49.48,-24.87 -103.98,-36.25 -88.9,-19.31 -152.4,-44.45 -190.5,-76.2 -38.36,-31.75 -57.41,-71.97 -57.41,-120.91 0,-32.28 9.79,-62.71 29.37,-91.28 19.58,-28.58 48.95,-51.06 88.11,-67.47 39.42,-16.4 93.13,-24.61 161.66,-24.61 84.14,0 148.17,14.82 192.09,44.71 44.19,29.63 70.11,77.26 78.58,142.08l-191.29 10.58c-5.03,-28.05 -15.88,-48.68 -32.28,-61.65 -16.14,-12.7 -38.63,-19.05 -67.47,-19.05 -23.81,0 -41.54,4.76 -53.45,14.29 -11.91,9.53 -17.99,21.17 -17.99,34.93 0,10.05 5.03,18.79 14.82,26.99 9.53,8.2 32.28,15.88 68.26,23.02 88.64,18.26 152.14,36.78 190.5,55.3 38.36,18.52 66.41,41.8 83.87,69.32 17.46,27.52 26.19,58.47 26.19,92.87 0,39.95 -11.91,77.26 -34.93,111.13 -23.28,33.87 -55.83,59.53 -97.9,76.99 -41.8,17.73 -94.46,26.19 -158.22,26.19 -111.65,0 -189.18,-20.37 -232.04,-61.38 -42.32,-41.02 -66.67,-93.14 -72.49,-156.38l0 0zm-316.7 -31.75l-72.5 -225.16 -72.23 225.16 144.73 0zm42.6 135.47l-231.25 0 -31.75 103.45 -207.43 0 246.86 -626.53 221.45 0 247.12 626.53 -212.46 0 -32.54 -103.45zm-929.22 174.1l13.49 -50.54c28.05,-6.61 54.24,-9.79 78.85,-9.79 51.06,0 86.52,8.2 105.83,24.87 19.58,16.67 29.1,35.98 29.1,58.74 0,13.49 -4.5,27.78 -13.23,42.07 -9,14.55 -24.61,26.19 -47.36,34.93 -22.75,8.73 -52.92,13.23 -90.49,13.23 -34.13,0 -74.08,-3.7 -120.12,-11.11l0 -52.65c30.96,5.82 64.03,8.73 98.95,8.73 25.66,0 43.13,-3.18 52.39,-10.05 9,-6.61 13.49,-15.08 13.49,-25.4 0,-8.47 -3.7,-15.35 -11.11,-21.43 -7.41,-6.09 -19.05,-9 -35.19,-9 -20.89,-0.01 -46.03,2.37 -74.6,7.4l0 0zm248.44 -326.5l178.06 51.33c-11.91,47.36 -30.69,87.05 -56.36,119.06 -25.66,32.01 -57.68,56.09 -95.78,72.23 -38.1,16.4 -86.52,24.34 -145.26,24.34 -71.44,0 -129.91,-10.05 -174.89,-29.63 -45.24,-19.84 -84.4,-54.77 -117.48,-104.51 -32.81,-50.01 -49.21,-113.51 -49.21,-191.29 0,-103.72 29.1,-183.36 86.78,-239.18 57.68,-55.83 139.7,-83.61 245.27,-83.61 82.81,0 147.9,15.88 195.26,47.89 47.36,32.01 82.55,80.96 105.57,147.11l-179.39 38.1c-6.35,-19.05 -12.96,-33.07 -19.84,-42.07 -11.38,-14.82 -25.14,-26.19 -41.54,-34.13 -16.67,-7.94 -34.93,-12.17 -55.3,-12.17 -46.04,0 -81.23,17.73 -105.83,52.92 -18.52,26.19 -27.78,67.47 -27.78,123.56 0,69.59 11.11,116.95 33.07,142.88 22.23,25.66 53.18,38.63 93.13,38.63 38.89,0 68.26,-10.32 88.11,-31.22 19.86,-20.39 34.42,-50.55 43.41,-90.24l0 0zm-1100.93 -370.68l543.98 0 0 133.88 -340.51 0 0 99.48 315.91 0 0 127.79 -315.91 0.01 0 123.3 350.57 -0.01 0 141.82 -554.04 0 0 -626.27zm-459.32 267.23l49.75 0c39.16,0 66.41,-6.35 82.29,-19.31 15.88,-12.96 23.81,-29.63 23.81,-49.74 0,-19.58 -6.88,-36.51 -20.64,-50.01 -13.76,-13.76 -39.69,-20.64 -77.52,-20.64l-57.69 0 0 139.7zm-203.99 -267.23l337.34 0c73.55,0 128.59,16.67 165.1,50.01 36.78,33.34 55.03,80.7 55.03,142.35 0,63.24 -19.84,112.71 -59.8,148.43 -39.95,35.45 -100.81,53.45 -182.56,53.45l-111.12 -0.01 0 232.57 -203.99 0 0 -626.8z"/>
   </g>
   <g>
    <path class="fil1" d="M5799.14 429.49c-57.15,105.04 -1137.18,534.99 -1162.05,994.83 -25.14,411.96 452.7,370.42 610.39,451.38 0,0 585.26,125.41 175.68,810.95 -479.69,754.33 -1607.34,478.9 -1914.53,-192.35 -500.84,-935.04 667.3,-2263.25 2290.51,-2064.81l0 0zm-357.18 3037.15c638.44,-390 1111.25,-583.67 1184.8,-955.41 39.42,-285.22 -76.99,-404.55 -373.86,-450.32 -289.45,-44.45 -692.15,-72.5 -495.56,-753.53 213.52,-656.96 1172.9,-696.38 1612.37,-359.57 420.42,313 827.62,1045.63 206.38,1724.82 -728.67,763.06 -1579.04,874.18 -2134.13,794.01l0 0zm-2243.14 -1511.3c0,944.3 1104.37,1709.74 2466.45,1709.74 1362.34,0 2466.45,-765.44 2466.45,-1709.74 0,-944.3 -1104.11,-1709.74 -2466.45,-1709.74 -1362.08,-0.26 -2466.45,765.44 -2466.45,1709.74z"/>
   </g>
   <g>
    <path class="fil1" d="M8365.87 1955.34c0,-1045.9 -1212.85,-1893.62 -2708.8,-1893.62 -1495.95,0 -2708.8,847.99 -2708.8,1893.62 0,1045.9 1212.85,1893.62 2708.8,1893.62 1495.95,0.01 2708.8,-847.98 2708.8,-1893.62l0 0zm-192.36 -4.23c0,978.96 -1124.74,1772.44 -2512.48,1772.44 -1387.48,0 -2512.48,-793.49 -2512.48,-1772.44 0,-978.96 1124.74,-1772.44 2512.48,-1772.44 1387.74,0 2512.48,793.48 2512.48,1772.44z"/>
   </g>
  </g>
 </g>
</svg>
